<svg width="2797" height="120" viewBox="0 0 2797 120" fill="none" xmlns="http://www.w3.org/2000/svg">
<path d="M23.7991 58.3962H75.4084L74.6062 62.541H22.9969L23.7991 58.3962ZM15.5095 103.855H74.3388L73.4029 108H10.1614L28.8798 14.408H90.1158L89.3136 18.5527H32.4898L15.5095 103.855ZM92.3135 74.4406L93.1157 70.4295H126.943L126.14 74.4406H92.3135ZM142.433 108L161.152 14.408H198.99C207.547 14.408 214.276 16.0124 219.179 19.2213C224.081 22.4301 226.532 27.1989 226.532 33.5275C226.532 39.6778 225.017 44.8031 221.987 48.9033C219.045 53.0035 215.079 56.0787 210.087 58.1288C205.185 60.1789 199.747 61.204 193.775 61.204L196.316 59.3321C204.427 59.3321 210.845 60.9811 215.569 64.2791C220.293 67.5772 222.655 72.5687 222.655 79.2539C222.655 85.4042 221.095 90.6186 217.975 94.8971C214.856 99.1756 210.399 102.429 204.605 104.657C198.811 106.886 191.77 108 183.48 108H142.433ZM147.781 103.989H184.149C195.023 103.989 203.402 101.894 209.285 97.7049C215.168 93.5155 218.109 87.4543 218.109 79.5213C218.109 73.3709 215.97 69.0033 211.691 66.4184C207.502 63.7443 201.263 62.4073 192.973 62.4073H155.135L155.937 58.5299H190.433C196.494 58.5299 201.887 57.6386 206.611 55.8559C211.335 53.984 215.034 51.2654 217.708 47.7C220.471 44.0454 221.853 39.5441 221.853 34.196C221.853 28.937 219.803 25.0151 215.702 22.4301C211.602 19.7561 205.853 18.419 198.455 18.419H164.895L147.781 103.989ZM240.036 108L258.755 14.408H263.301L244.582 108H240.036ZM284.832 83.9335L285.902 77.6494L360.107 14.408H366.391L315.45 57.7277L313.177 59.7332L284.832 83.9335ZM276.141 108L294.86 14.408H299.406L280.687 108H276.141ZM345.266 108L311.172 58.5299L314.648 55.9896L350.48 108H345.266ZM380.331 58.3962H431.941L431.139 62.541H379.529L380.331 58.3962ZM372.042 103.855H430.871L429.935 108H366.694L385.412 14.408H446.648L445.846 18.5527H389.022L372.042 103.855Z" fill="#DC1405"/>
<path d="M493.799 58.3962H545.408L544.606 62.541H492.997L493.799 58.3962ZM485.51 103.855H544.339L543.403 108H480.161L498.88 14.408H560.116L559.314 18.5527H502.49L485.51 103.855ZM562.314 74.4406L563.116 70.4295H596.943L596.14 74.4406H562.314ZM612.433 108L631.152 14.408H668.99C677.547 14.408 684.276 16.0124 689.179 19.2213C694.081 22.4301 696.532 27.1989 696.532 33.5275C696.532 39.6778 695.017 44.8031 691.987 48.9033C689.045 53.0035 685.079 56.0787 680.087 58.1288C675.185 60.1789 669.747 61.204 663.775 61.204L666.316 59.3321C674.427 59.3321 680.845 60.9811 685.569 64.2791C690.293 67.5772 692.655 72.5687 692.655 79.2539C692.655 85.4042 691.095 90.6186 687.975 94.8971C684.856 99.1756 680.399 102.429 674.605 104.657C668.811 106.886 661.77 108 653.48 108H612.433ZM617.781 103.989H654.149C665.023 103.989 673.402 101.894 679.285 97.7049C685.168 93.5155 688.109 87.4543 688.109 79.5213C688.109 73.3709 685.97 69.0033 681.691 66.4184C677.502 63.7443 671.263 62.4073 662.973 62.4073H625.135L625.937 58.5299H660.433C666.494 58.5299 671.887 57.6386 676.611 55.8559C681.335 53.984 685.034 51.2654 687.708 47.7C690.471 44.0454 691.853 39.5441 691.853 34.196C691.853 28.937 689.803 25.0151 685.702 22.4301C681.602 19.7561 675.853 18.419 668.455 18.419H634.895L617.781 103.989ZM710.036 108L728.755 14.408H733.301L714.582 108H710.036ZM754.832 83.9335L755.902 77.6494L830.107 14.408H836.391L785.45 57.7277L783.177 59.7332L754.832 83.9335ZM746.141 108L764.86 14.408H769.406L750.687 108H746.141ZM815.266 108L781.172 58.5299L784.648 55.9896L820.48 108H815.266ZM850.331 58.3962H901.941L901.139 62.541H849.529L850.331 58.3962ZM842.042 103.855H900.871L899.935 108H836.694L855.412 14.408H916.648L915.846 18.5527H859.022L842.042 103.855Z" fill="#DC1405"/>
<path d="M963.799 58.3962H1015.41L1014.61 62.541H962.997L963.799 58.3962ZM955.51 103.855H1014.34L1013.4 108H950.161L968.88 14.408H1030.12L1029.31 18.5527H972.49L955.51 103.855ZM1032.31 74.4406L1033.12 70.4295H1066.94L1066.14 74.4406H1032.31ZM1082.43 108L1101.15 14.408H1138.99C1147.55 14.408 1154.28 16.0124 1159.18 19.2213C1164.08 22.4301 1166.53 27.1989 1166.53 33.5275C1166.53 39.6778 1165.02 44.8031 1161.99 48.9033C1159.05 53.0035 1155.08 56.0787 1150.09 58.1288C1145.18 60.1789 1139.75 61.204 1133.78 61.204L1136.32 59.3321C1144.43 59.3321 1150.84 60.9811 1155.57 64.2791C1160.29 67.5772 1162.66 72.5687 1162.66 79.2539C1162.66 85.4042 1161.1 90.6186 1157.98 94.8971C1154.86 99.1756 1150.4 102.429 1144.61 104.657C1138.81 106.886 1131.77 108 1123.48 108H1082.43ZM1087.78 103.989H1124.15C1135.02 103.989 1143.4 101.894 1149.28 97.7049C1155.17 93.5155 1158.11 87.4543 1158.11 79.5213C1158.11 73.3709 1155.97 69.0033 1151.69 66.4184C1147.5 63.7443 1141.26 62.4073 1132.97 62.4073H1095.14L1095.94 58.5299H1130.43C1136.49 58.5299 1141.89 57.6386 1146.61 55.8559C1151.33 53.984 1155.03 51.2654 1157.71 47.7C1160.47 44.0454 1161.85 39.5441 1161.85 34.196C1161.85 28.937 1159.8 25.0151 1155.7 22.4301C1151.6 19.7561 1145.85 18.419 1138.45 18.419H1104.9L1087.78 103.989ZM1180.04 108L1198.75 14.408H1203.3L1184.58 108H1180.04ZM1224.83 83.9335L1225.9 77.6494L1300.11 14.408H1306.39L1255.45 57.7277L1253.18 59.7332L1224.83 83.9335ZM1216.14 108L1234.86 14.408H1239.41L1220.69 108H1216.14ZM1285.27 108L1251.17 58.5299L1254.65 55.9896L1290.48 108H1285.27ZM1320.33 58.3962H1371.94L1371.14 62.541H1319.53L1320.33 58.3962ZM1312.04 103.855H1370.87L1369.94 108H1306.69L1325.41 14.408H1386.65L1385.85 18.5527H1329.02L1312.04 103.855Z" fill="#DC1405"/>
<path d="M1433.8 58.3962H1485.41L1484.61 62.541H1433L1433.8 58.3962ZM1425.51 103.855H1484.34L1483.4 108H1420.16L1438.88 14.408H1500.12L1499.31 18.5527H1442.49L1425.51 103.855ZM1502.31 74.4406L1503.12 70.4295H1536.94L1536.14 74.4406H1502.31ZM1552.43 108L1571.15 14.408H1608.99C1617.55 14.408 1624.28 16.0124 1629.18 19.2213C1634.08 22.4301 1636.53 27.1989 1636.53 33.5275C1636.53 39.6778 1635.02 44.8031 1631.99 48.9033C1629.05 53.0035 1625.08 56.0787 1620.09 58.1288C1615.18 60.1789 1609.75 61.204 1603.78 61.204L1606.32 59.3321C1614.43 59.3321 1620.84 60.9811 1625.57 64.2791C1630.29 67.5772 1632.66 72.5687 1632.66 79.2539C1632.66 85.4042 1631.1 90.6186 1627.98 94.8971C1624.86 99.1756 1620.4 102.429 1614.61 104.657C1608.81 106.886 1601.77 108 1593.48 108H1552.43ZM1557.78 103.989H1594.15C1605.02 103.989 1613.4 101.894 1619.28 97.7049C1625.17 93.5155 1628.11 87.4543 1628.11 79.5213C1628.11 73.3709 1625.97 69.0033 1621.69 66.4184C1617.5 63.7443 1611.26 62.4073 1602.97 62.4073H1565.14L1565.94 58.5299H1600.43C1606.49 58.5299 1611.89 57.6386 1616.61 55.8559C1621.33 53.984 1625.03 51.2654 1627.71 47.7C1630.47 44.0454 1631.85 39.5441 1631.85 34.196C1631.85 28.937 1629.8 25.0151 1625.7 22.4301C1621.6 19.7561 1615.85 18.419 1608.45 18.419H1574.9L1557.78 103.989ZM1650.04 108L1668.75 14.408H1673.3L1654.58 108H1650.04ZM1694.83 83.9335L1695.9 77.6494L1770.11 14.408H1776.39L1725.45 57.7277L1723.18 59.7332L1694.83 83.9335ZM1686.14 108L1704.86 14.408H1709.41L1690.69 108H1686.14ZM1755.27 108L1721.17 58.5299L1724.65 55.9896L1760.48 108H1755.27ZM1790.33 58.3962H1841.94L1841.14 62.541H1789.53L1790.33 58.3962ZM1782.04 103.855H1840.87L1839.94 108H1776.69L1795.41 14.408H1856.65L1855.85 18.5527H1799.02L1782.04 103.855Z" fill="#DC1405"/>
<path d="M1903.8 58.3962H1955.41L1954.61 62.541H1903L1903.8 58.3962ZM1895.51 103.855H1954.34L1953.4 108H1890.16L1908.88 14.408H1970.12L1969.31 18.5527H1912.49L1895.51 103.855ZM1972.31 74.4406L1973.12 70.4295H2006.94L2006.14 74.4406H1972.31ZM2022.43 108L2041.15 14.408H2078.99C2087.55 14.408 2094.28 16.0124 2099.18 19.2213C2104.08 22.4301 2106.53 27.1989 2106.53 33.5275C2106.53 39.6778 2105.02 44.8031 2101.99 48.9033C2099.05 53.0035 2095.08 56.0787 2090.09 58.1288C2085.18 60.1789 2079.75 61.204 2073.78 61.204L2076.32 59.3321C2084.43 59.3321 2090.84 60.9811 2095.57 64.2791C2100.29 67.5772 2102.66 72.5687 2102.66 79.2539C2102.66 85.4042 2101.1 90.6186 2097.98 94.8971C2094.86 99.1756 2090.4 102.429 2084.61 104.657C2078.81 106.886 2071.77 108 2063.48 108H2022.43ZM2027.78 103.989H2064.15C2075.02 103.989 2083.4 101.894 2089.28 97.7049C2095.17 93.5155 2098.11 87.4543 2098.11 79.5213C2098.11 73.3709 2095.97 69.0033 2091.69 66.4184C2087.5 63.7443 2081.26 62.4073 2072.97 62.4073H2035.14L2035.94 58.5299H2070.43C2076.49 58.5299 2081.89 57.6386 2086.61 55.8559C2091.33 53.984 2095.03 51.2654 2097.71 47.7C2100.47 44.0454 2101.85 39.5441 2101.85 34.196C2101.85 28.937 2099.8 25.0151 2095.7 22.4301C2091.6 19.7561 2085.85 18.419 2078.45 18.419H2044.9L2027.78 103.989ZM2120.04 108L2138.75 14.408H2143.3L2124.58 108H2120.04ZM2164.83 83.9335L2165.9 77.6494L2240.11 14.408H2246.39L2195.45 57.7277L2193.18 59.7332L2164.83 83.9335ZM2156.14 108L2174.86 14.408H2179.41L2160.69 108H2156.14ZM2225.27 108L2191.17 58.5299L2194.65 55.9896L2230.48 108H2225.27ZM2260.33 58.3962H2311.94L2311.14 62.541H2259.53L2260.33 58.3962ZM2252.04 103.855H2310.87L2309.94 108H2246.69L2265.41 14.408H2326.65L2325.85 18.5527H2269.02L2252.04 103.855Z" fill="#DC1405"/>
<path d="M2373.8 58.3962H2425.41L2424.61 62.541H2373L2373.8 58.3962ZM2365.51 103.855H2424.34L2423.4 108H2360.16L2378.88 14.408H2440.12L2439.31 18.5527H2382.49L2365.51 103.855ZM2442.31 74.4406L2443.12 70.4295H2476.94L2476.14 74.4406H2442.31ZM2492.43 108L2511.15 14.408H2548.99C2557.55 14.408 2564.28 16.0124 2569.18 19.2213C2574.08 22.4301 2576.53 27.1989 2576.53 33.5275C2576.53 39.6778 2575.02 44.8031 2571.99 48.9033C2569.05 53.0035 2565.08 56.0787 2560.09 58.1288C2555.18 60.1789 2549.75 61.204 2543.78 61.204L2546.32 59.3321C2554.43 59.3321 2560.84 60.9811 2565.57 64.2791C2570.29 67.5772 2572.66 72.5687 2572.66 79.2539C2572.66 85.4042 2571.1 90.6186 2567.98 94.8971C2564.86 99.1756 2560.4 102.429 2554.61 104.657C2548.81 106.886 2541.77 108 2533.48 108H2492.43ZM2497.78 103.989H2534.15C2545.02 103.989 2553.4 101.894 2559.28 97.7049C2565.17 93.5155 2568.11 87.4543 2568.11 79.5213C2568.11 73.3709 2565.97 69.0033 2561.69 66.4184C2557.5 63.7443 2551.26 62.4073 2542.97 62.4073H2505.14L2505.94 58.5299H2540.43C2546.49 58.5299 2551.89 57.6386 2556.61 55.8559C2561.33 53.984 2565.03 51.2654 2567.71 47.7C2570.47 44.0454 2571.85 39.5441 2571.85 34.196C2571.85 28.937 2569.8 25.0151 2565.7 22.4301C2561.6 19.7561 2555.85 18.419 2548.45 18.419H2514.9L2497.78 103.989ZM2590.04 108L2608.75 14.408H2613.3L2594.58 108H2590.04ZM2634.83 83.9335L2635.9 77.6494L2710.11 14.408H2716.39L2665.45 57.7277L2663.18 59.7332L2634.83 83.9335ZM2626.14 108L2644.86 14.408H2649.41L2630.69 108H2626.14ZM2695.27 108L2661.17 58.5299L2664.65 55.9896L2700.48 108H2695.27ZM2730.33 58.3962H2781.94L2781.14 62.541H2729.53L2730.33 58.3962ZM2722.04 103.855H2780.87L2779.94 108H2716.69L2735.41 14.408H2796.65L2795.85 18.5527H2739.02L2722.04 103.855Z" fill="#DC1405"/>
</svg>
