<svg width="2953" height="120" viewBox="0 0 2953 120" fill="none" xmlns="http://www.w3.org/2000/svg">
<path d="M92.7898 39.6778C92.7898 49.4827 90.1603 57.4157 84.9014 63.4769C79.6424 69.5381 72.2441 73.5046 62.7067 75.3765L81.1577 108H76.2107L58.0271 76.045C55.4421 76.3124 52.8127 76.4461 50.1386 76.4461H20.9914L14.7073 108H10.1614L28.8798 14.408H60.9685C71.0408 14.408 78.8402 16.6363 84.3665 21.0931C89.9821 25.4607 92.7898 31.6556 92.7898 39.6778ZM50.0049 72.435C62.2164 72.435 71.6202 69.6718 78.2162 64.1454C84.9014 58.6191 88.2439 50.5523 88.2439 39.9452C88.2439 33.0818 85.8818 27.8228 81.1577 24.1683C76.4335 20.4246 69.6592 18.5527 60.8348 18.5527H32.6235L21.7936 72.435H50.0049ZM145.037 108.535C136.035 108.535 128.325 106.975 121.907 103.855C115.578 100.646 110.765 96.1896 107.467 90.4849C104.169 84.6911 102.52 78.006 102.52 70.4295C102.52 60.2681 104.793 50.8643 109.339 42.2182C113.974 33.572 120.525 26.7086 128.993 21.6279C137.461 16.4581 147.266 13.8731 158.408 13.8731C167.41 13.8731 175.076 15.4776 181.405 18.6864C187.733 21.8062 192.546 26.263 195.844 32.0567C199.142 37.7614 200.791 44.402 200.791 51.9785C200.791 62.1399 198.519 71.5437 193.973 80.1898C189.427 88.8359 182.92 95.7439 174.452 100.914C165.984 105.994 156.179 108.535 145.037 108.535ZM145.438 104.39C155.422 104.39 164.246 102.028 171.912 97.3038C179.666 92.5796 185.638 86.251 189.828 78.318C194.106 70.2958 196.246 61.5605 196.246 52.1122C196.246 41.6834 192.948 33.3938 186.352 27.2434C179.756 21.0931 170.307 18.0179 158.007 18.0179C147.934 18.0179 139.021 20.38 131.266 25.1042C123.6 29.8284 117.628 36.2015 113.35 44.2237C109.16 52.1567 107.066 60.8474 107.066 70.2958C107.066 80.6355 110.364 88.9251 116.96 95.1645C123.645 101.315 133.138 104.39 145.438 104.39ZM274.615 80.5909H218.326L200.277 108H195.196L257.234 14.408H261.646L286.247 108H281.702L274.615 80.5909ZM273.546 76.7135L258.705 19.355L220.867 76.7135H273.546ZM320.514 14.408H354.608C363.789 14.408 371.589 15.9678 378.006 19.0876C384.513 22.2073 389.416 26.6195 392.714 32.3241C396.101 37.9397 397.794 44.4911 397.794 51.9785C397.794 62.853 395.388 72.5242 390.574 80.992C385.85 89.4599 379.076 96.1004 370.252 100.914C361.427 105.638 351.177 108 339.5 108H301.796L320.514 14.408ZM339.901 103.855C350.597 103.855 360.001 101.671 368.112 97.3038C376.224 92.847 382.463 86.7412 386.831 78.9865C391.198 71.1426 393.382 62.1845 393.382 52.1122C393.382 41.7725 390.04 33.6166 383.354 27.6445C376.669 21.5833 366.954 18.5527 354.207 18.5527H324.124L307.144 103.855H339.901Z" fill="#DC1405"/>
<path d="M519.79 39.6778C519.79 49.4827 517.16 57.4157 511.901 63.4769C506.642 69.5381 499.244 73.5046 489.707 75.3765L508.158 108H503.211L485.027 76.045C482.442 76.3124 479.813 76.4461 477.139 76.4461H447.991L441.707 108H437.161L455.88 14.408H487.969C498.041 14.408 505.84 16.6363 511.367 21.0931C516.982 25.4607 519.79 31.6556 519.79 39.6778ZM477.005 72.435C489.216 72.435 498.62 69.6718 505.216 64.1454C511.901 58.6191 515.244 50.5523 515.244 39.9452C515.244 33.0818 512.882 27.8228 508.158 24.1683C503.434 20.4246 496.659 18.5527 487.835 18.5527H459.624L448.794 72.435H477.005ZM572.037 108.535C563.035 108.535 555.325 106.975 548.907 103.855C542.578 100.646 537.765 96.1896 534.467 90.4849C531.169 84.6911 529.52 78.006 529.52 70.4295C529.52 60.2681 531.793 50.8643 536.339 42.2182C540.974 33.572 547.525 26.7086 555.993 21.6279C564.461 16.4581 574.266 13.8731 585.408 13.8731C594.41 13.8731 602.076 15.4776 608.405 18.6864C614.733 21.8062 619.546 26.263 622.844 32.0567C626.142 37.7614 627.791 44.402 627.791 51.9785C627.791 62.1399 625.519 71.5437 620.973 80.1898C616.427 88.8359 609.92 95.7439 601.452 100.914C592.984 105.994 583.179 108.535 572.037 108.535ZM572.438 104.39C582.422 104.39 591.246 102.028 598.912 97.3038C606.666 92.5796 612.638 86.251 616.828 78.318C621.106 70.2958 623.246 61.5605 623.246 52.1122C623.246 41.6834 619.948 33.3938 613.352 27.2434C606.756 21.0931 597.307 18.0179 585.007 18.0179C574.934 18.0179 566.021 20.38 558.266 25.1042C550.6 29.8284 544.628 36.2015 540.35 44.2237C536.16 52.1567 534.066 60.8474 534.066 70.2958C534.066 80.6355 537.364 88.9251 543.96 95.1645C550.645 101.315 560.138 104.39 572.438 104.39ZM701.615 80.5909H645.326L627.277 108H622.196L684.234 14.408H688.646L713.247 108H708.702L701.615 80.5909ZM700.546 76.7135L685.705 19.355L647.867 76.7135H700.546ZM747.514 14.408H781.608C790.789 14.408 798.589 15.9678 805.006 19.0876C811.513 22.2073 816.416 26.6195 819.714 32.3241C823.101 37.9397 824.794 44.4911 824.794 51.9785C824.794 62.853 822.388 72.5242 817.574 80.992C812.85 89.4599 806.076 96.1004 797.252 100.914C788.427 105.638 778.177 108 766.5 108H728.796L747.514 14.408ZM766.901 103.855C777.597 103.855 787.001 101.671 795.112 97.3038C803.224 92.847 809.463 86.7412 813.831 78.9865C818.198 71.1426 820.382 62.1845 820.382 52.1122C820.382 41.7725 817.04 33.6166 810.354 27.6445C803.669 21.5833 793.954 18.5527 781.207 18.5527H751.124L734.144 103.855H766.901Z" fill="#DC1405"/>
<path d="M946.79 39.6778C946.79 49.4827 944.16 57.4157 938.901 63.4769C933.642 69.5381 926.244 73.5046 916.707 75.3765L935.158 108H930.211L912.027 76.045C909.442 76.3124 906.813 76.4461 904.139 76.4461H874.991L868.707 108H864.161L882.88 14.408H914.969C925.041 14.408 932.84 16.6363 938.367 21.0931C943.982 25.4607 946.79 31.6556 946.79 39.6778ZM904.005 72.435C916.216 72.435 925.62 69.6718 932.216 64.1454C938.901 58.6191 942.244 50.5523 942.244 39.9452C942.244 33.0818 939.882 27.8228 935.158 24.1683C930.434 20.4246 923.659 18.5527 914.835 18.5527H886.624L875.794 72.435H904.005ZM999.037 108.535C990.035 108.535 982.325 106.975 975.907 103.855C969.578 100.646 964.765 96.1896 961.467 90.4849C958.169 84.6911 956.52 78.006 956.52 70.4295C956.52 60.2681 958.793 50.8643 963.339 42.2182C967.974 33.572 974.525 26.7086 982.993 21.6279C991.461 16.4581 1001.27 13.8731 1012.41 13.8731C1021.41 13.8731 1029.08 15.4776 1035.4 18.6864C1041.73 21.8062 1046.55 26.263 1049.84 32.0567C1053.14 37.7614 1054.79 44.402 1054.79 51.9785C1054.79 62.1399 1052.52 71.5437 1047.97 80.1898C1043.43 88.8359 1036.92 95.7439 1028.45 100.914C1019.98 105.994 1010.18 108.535 999.037 108.535ZM999.438 104.39C1009.42 104.39 1018.25 102.028 1025.91 97.3038C1033.67 92.5796 1039.64 86.251 1043.83 78.318C1048.11 70.2958 1050.25 61.5605 1050.25 52.1122C1050.25 41.6834 1046.95 33.3938 1040.35 27.2434C1033.76 21.0931 1024.31 18.0179 1012.01 18.0179C1001.93 18.0179 993.021 20.38 985.266 25.1042C977.6 29.8284 971.628 36.2015 967.35 44.2237C963.16 52.1567 961.066 60.8474 961.066 70.2958C961.066 80.6355 964.364 88.9251 970.96 95.1645C977.645 101.315 987.138 104.39 999.438 104.39ZM1128.62 80.5909H1072.33L1054.28 108H1049.2L1111.23 14.408H1115.65L1140.25 108H1135.7L1128.62 80.5909ZM1127.55 76.7135L1112.7 19.355L1074.87 76.7135H1127.55ZM1174.51 14.408H1208.61C1217.79 14.408 1225.59 15.9678 1232.01 19.0876C1238.51 22.2073 1243.42 26.6195 1246.71 32.3241C1250.1 37.9397 1251.79 44.4911 1251.79 51.9785C1251.79 62.853 1249.39 72.5242 1244.57 80.992C1239.85 89.4599 1233.08 96.1004 1224.25 100.914C1215.43 105.638 1205.18 108 1193.5 108H1155.8L1174.51 14.408ZM1193.9 103.855C1204.6 103.855 1214 101.671 1222.11 97.3038C1230.22 92.847 1236.46 86.7412 1240.83 78.9865C1245.2 71.1426 1247.38 62.1845 1247.38 52.1122C1247.38 41.7725 1244.04 33.6166 1237.35 27.6445C1230.67 21.5833 1220.95 18.5527 1208.21 18.5527H1178.12L1161.14 103.855H1193.9Z" fill="#DC1405"/>
<path d="M1291.16 108L1309.88 14.408H1341.97C1352.04 14.408 1359.84 16.6363 1365.37 21.0931C1370.98 25.4607 1373.79 31.6556 1373.79 39.6778C1373.79 47.7 1372.05 54.4743 1368.58 60.0007C1365.1 65.4379 1360.15 69.5381 1353.73 72.3013C1347.41 75.0645 1339.87 76.4461 1331.14 76.4461H1299.99L1302.39 74.4406L1295.71 108H1291.16ZM1357.21 108L1337.96 74.0395H1343.04L1362.16 108H1357.21ZM1302.39 74.4406L1300.79 72.435H1331C1343.13 72.435 1352.53 69.7164 1359.22 64.2791C1365.9 58.8419 1369.24 50.7306 1369.24 39.9452C1369.24 33.0818 1366.88 27.8228 1362.16 24.1683C1357.43 20.4246 1350.66 18.5527 1341.83 18.5527H1311.62L1314.02 16.4135L1302.39 74.4406ZM1426.04 108.535C1416.86 108.535 1409.1 106.93 1402.77 103.722C1396.53 100.513 1391.76 96.0559 1388.47 90.3512C1385.17 84.5574 1383.52 77.9168 1383.52 70.4295C1383.52 62.853 1384.81 55.6776 1387.4 48.9033C1389.98 42.129 1393.68 36.1124 1398.49 30.8534C1403.31 25.5944 1409.15 21.4496 1416.01 18.419C1422.96 15.3884 1430.76 13.8731 1439.41 13.8731C1448.5 13.8731 1456.21 15.4776 1462.54 18.6864C1468.87 21.8953 1473.64 26.3521 1476.84 32.0567C1480.14 37.7614 1481.79 44.402 1481.79 51.9785C1481.79 59.555 1480.5 66.7304 1477.91 73.5046C1475.42 80.2789 1471.72 86.2956 1466.82 91.5545C1462 96.8135 1456.17 100.958 1449.3 103.989C1442.44 107.02 1434.68 108.535 1426.04 108.535ZM1426.44 104.39C1434.19 104.39 1441.19 103.008 1447.43 100.245C1453.67 97.482 1458.97 93.6938 1463.34 88.8805C1467.8 84.0672 1471.23 78.4962 1473.64 72.1676C1476.04 65.839 1477.25 59.1539 1477.25 52.1122C1477.25 45.3379 1475.82 39.4104 1472.97 34.3297C1470.11 29.249 1465.84 25.2825 1460.13 22.4301C1454.43 19.4887 1447.39 18.0179 1439.01 18.0179C1431.25 18.0179 1424.21 19.3995 1417.88 22.1627C1411.64 24.9259 1406.29 28.7142 1401.84 33.5275C1397.47 38.3408 1394.08 43.9117 1391.68 50.2403C1389.27 56.5689 1388.07 63.2541 1388.07 70.2958C1388.07 76.9809 1389.49 82.9084 1392.34 88.0783C1395.29 93.159 1399.56 97.1701 1405.18 100.112C1410.88 102.964 1417.97 104.39 1426.44 104.39ZM1476.2 108L1538.23 14.408H1542.65L1567.25 108H1562.7L1539.17 17.4831H1541.04L1481.28 108H1476.2ZM1496.65 80.5909L1499.19 76.7135H1556.42L1557.35 80.5909H1496.65ZM1582.8 108L1601.51 14.408H1635.61C1644.97 14.408 1652.86 15.9678 1659.27 19.0876C1665.69 22.2073 1670.55 26.6195 1673.85 32.3241C1677.15 37.9397 1678.79 44.4911 1678.79 51.9785C1678.79 60.0898 1677.41 67.5772 1674.65 74.4406C1671.98 81.304 1668.1 87.2315 1663.02 92.2231C1657.94 97.2146 1651.79 101.092 1644.57 103.855C1637.44 106.618 1629.41 108 1620.5 108H1582.8ZM1588.14 103.855H1620.9C1631.86 103.855 1641.31 101.671 1649.25 97.3038C1657.18 92.847 1663.33 86.7412 1667.7 78.9865C1672.15 71.1426 1674.38 62.1845 1674.38 52.1122C1674.38 45.427 1672.91 39.5441 1669.97 34.4634C1667.12 29.3827 1662.79 25.4607 1657 22.6975C1651.21 19.9343 1643.94 18.5527 1635.21 18.5527H1605.12L1588.14 103.855Z" fill="#DC1405"/>
<path d="M1715.16 108L1733.88 14.408H1765.97C1776.04 14.408 1783.84 16.6363 1789.37 21.0931C1794.98 25.4607 1797.79 31.6556 1797.79 39.6778C1797.79 47.7 1796.05 54.4743 1792.58 60.0007C1789.1 65.4379 1784.15 69.5381 1777.73 72.3013C1771.41 75.0645 1763.87 76.4461 1755.14 76.4461H1723.99L1726.39 74.4406L1719.71 108H1715.16ZM1781.21 108L1761.96 74.0395H1767.04L1786.16 108H1781.21ZM1726.39 74.4406L1724.79 72.435H1755C1767.13 72.435 1776.53 69.7164 1783.22 64.2791C1789.9 58.8419 1793.24 50.7306 1793.24 39.9452C1793.24 33.0818 1790.88 27.8228 1786.16 24.1683C1781.43 20.4246 1774.66 18.5527 1765.83 18.5527H1735.62L1738.02 16.4135L1726.39 74.4406ZM1850.04 108.535C1840.86 108.535 1833.1 106.93 1826.77 103.722C1820.53 100.513 1815.76 96.0559 1812.47 90.3512C1809.17 84.5574 1807.52 77.9168 1807.52 70.4295C1807.52 62.853 1808.81 55.6776 1811.4 48.9033C1813.98 42.129 1817.68 36.1124 1822.49 30.8534C1827.31 25.5944 1833.15 21.4496 1840.01 18.419C1846.96 15.3884 1854.76 13.8731 1863.41 13.8731C1872.5 13.8731 1880.21 15.4776 1886.54 18.6864C1892.87 21.8953 1897.64 26.3521 1900.84 32.0567C1904.14 37.7614 1905.79 44.402 1905.79 51.9785C1905.79 59.555 1904.5 66.7304 1901.91 73.5046C1899.42 80.2789 1895.72 86.2956 1890.82 91.5545C1886 96.8135 1880.17 100.958 1873.3 103.989C1866.44 107.02 1858.68 108.535 1850.04 108.535ZM1850.44 104.39C1858.19 104.39 1865.19 103.008 1871.43 100.245C1877.67 97.482 1882.97 93.6938 1887.34 88.8805C1891.8 84.0672 1895.23 78.4962 1897.64 72.1676C1900.04 65.839 1901.25 59.1539 1901.25 52.1122C1901.25 45.3379 1899.82 39.4104 1896.97 34.3297C1894.11 29.249 1889.84 25.2825 1884.13 22.4301C1878.43 19.4887 1871.39 18.0179 1863.01 18.0179C1855.25 18.0179 1848.21 19.3995 1841.88 22.1627C1835.64 24.9259 1830.29 28.7142 1825.84 33.5275C1821.47 38.3408 1818.08 43.9117 1815.68 50.2403C1813.27 56.5689 1812.07 63.2541 1812.07 70.2958C1812.07 76.9809 1813.49 82.9084 1816.34 88.0783C1819.29 93.159 1823.56 97.1701 1829.18 100.112C1834.88 102.964 1841.97 104.39 1850.44 104.39ZM1900.2 108L1962.23 14.408H1966.65L1991.25 108H1986.7L1963.17 17.4831H1965.04L1905.28 108H1900.2ZM1920.65 80.5909L1923.19 76.7135H1980.42L1981.35 80.5909H1920.65ZM2006.8 108L2025.51 14.408H2059.61C2068.97 14.408 2076.86 15.9678 2083.27 19.0876C2089.69 22.2073 2094.55 26.6195 2097.85 32.3241C2101.15 37.9397 2102.79 44.4911 2102.79 51.9785C2102.79 60.0898 2101.41 67.5772 2098.65 74.4406C2095.98 81.304 2092.1 87.2315 2087.02 92.2231C2081.94 97.2146 2075.79 101.092 2068.57 103.855C2061.44 106.618 2053.41 108 2044.5 108H2006.8ZM2012.14 103.855H2044.9C2055.86 103.855 2065.31 101.671 2073.25 97.3038C2081.18 92.847 2087.33 86.7412 2091.7 78.9865C2096.15 71.1426 2098.38 62.1845 2098.38 52.1122C2098.38 45.427 2096.91 39.5441 2093.97 34.4634C2091.12 29.3827 2086.79 25.4607 2081 22.6975C2075.21 19.9343 2067.94 18.5527 2059.21 18.5527H2029.12L2012.14 103.855Z" fill="#DC1405"/>
<path d="M2139.16 108L2157.88 14.408H2189.97C2200.04 14.408 2207.84 16.6363 2213.37 21.0931C2218.98 25.4607 2221.79 31.6556 2221.79 39.6778C2221.79 47.7 2220.05 54.4743 2216.58 60.0007C2213.1 65.4379 2208.15 69.5381 2201.73 72.3013C2195.41 75.0645 2187.87 76.4461 2179.14 76.4461H2147.99L2150.39 74.4406L2143.71 108H2139.16ZM2205.21 108L2185.96 74.0395H2191.04L2210.16 108H2205.21ZM2150.39 74.4406L2148.79 72.435H2179C2191.13 72.435 2200.53 69.7164 2207.22 64.2791C2213.9 58.8419 2217.24 50.7306 2217.24 39.9452C2217.24 33.0818 2214.88 27.8228 2210.16 24.1683C2205.43 20.4246 2198.66 18.5527 2189.83 18.5527H2159.62L2162.02 16.4135L2150.39 74.4406ZM2274.04 108.535C2264.86 108.535 2257.1 106.93 2250.77 103.722C2244.53 100.513 2239.76 96.0559 2236.47 90.3512C2233.17 84.5574 2231.52 77.9168 2231.52 70.4295C2231.52 62.853 2232.81 55.6776 2235.4 48.9033C2237.98 42.129 2241.68 36.1124 2246.49 30.8534C2251.31 25.5944 2257.15 21.4496 2264.01 18.419C2270.96 15.3884 2278.76 13.8731 2287.41 13.8731C2296.5 13.8731 2304.21 15.4776 2310.54 18.6864C2316.87 21.8953 2321.64 26.3521 2324.84 32.0567C2328.14 37.7614 2329.79 44.402 2329.79 51.9785C2329.79 59.555 2328.5 66.7304 2325.91 73.5046C2323.42 80.2789 2319.72 86.2956 2314.82 91.5545C2310 96.8135 2304.17 100.958 2297.3 103.989C2290.44 107.02 2282.68 108.535 2274.04 108.535ZM2274.44 104.39C2282.19 104.39 2289.19 103.008 2295.43 100.245C2301.67 97.482 2306.97 93.6938 2311.34 88.8805C2315.8 84.0672 2319.23 78.4962 2321.64 72.1676C2324.04 65.839 2325.25 59.1539 2325.25 52.1122C2325.25 45.3379 2323.82 39.4104 2320.97 34.3297C2318.11 29.249 2313.84 25.2825 2308.13 22.4301C2302.43 19.4887 2295.39 18.0179 2287.01 18.0179C2279.25 18.0179 2272.21 19.3995 2265.88 22.1627C2259.64 24.9259 2254.29 28.7142 2249.84 33.5275C2245.47 38.3408 2242.08 43.9117 2239.68 50.2403C2237.27 56.5689 2236.07 63.2541 2236.07 70.2958C2236.07 76.9809 2237.49 82.9084 2240.34 88.0783C2243.29 93.159 2247.56 97.1701 2253.18 100.112C2258.88 102.964 2265.97 104.39 2274.44 104.39ZM2324.2 108L2386.23 14.408H2390.65L2415.25 108H2410.7L2387.17 17.4831H2389.04L2329.28 108H2324.2ZM2344.65 80.5909L2347.19 76.7135H2404.42L2405.35 80.5909H2344.65ZM2430.8 108L2449.51 14.408H2483.61C2492.97 14.408 2500.86 15.9678 2507.27 19.0876C2513.69 22.2073 2518.55 26.6195 2521.85 32.3241C2525.15 37.9397 2526.79 44.4911 2526.79 51.9785C2526.79 60.0898 2525.41 67.5772 2522.65 74.4406C2519.98 81.304 2516.1 87.2315 2511.02 92.2231C2505.94 97.2146 2499.79 101.092 2492.57 103.855C2485.44 106.618 2477.41 108 2468.5 108H2430.8ZM2436.14 103.855H2468.9C2479.86 103.855 2489.31 101.671 2497.25 97.3038C2505.18 92.847 2511.33 86.7412 2515.7 78.9865C2520.15 71.1426 2522.38 62.1845 2522.38 52.1122C2522.38 45.427 2520.91 39.5441 2517.97 34.4634C2515.12 29.3827 2510.79 25.4607 2505 22.6975C2499.21 19.9343 2491.94 18.5527 2483.21 18.5527H2453.12L2436.14 103.855Z" fill="#DC1405"/>
<path d="M2563.16 108L2581.88 14.408H2613.97C2624.04 14.408 2631.84 16.6363 2637.37 21.0931C2642.98 25.4607 2645.79 31.6556 2645.79 39.6778C2645.79 47.7 2644.05 54.4743 2640.58 60.0007C2637.1 65.4379 2632.15 69.5381 2625.73 72.3013C2619.41 75.0645 2611.87 76.4461 2603.14 76.4461H2571.99L2574.39 74.4406L2567.71 108H2563.16ZM2629.21 108L2609.96 74.0395H2615.04L2634.16 108H2629.21ZM2574.39 74.4406L2572.79 72.435H2603C2615.13 72.435 2624.53 69.7164 2631.22 64.2791C2637.9 58.8419 2641.24 50.7306 2641.24 39.9452C2641.24 33.0818 2638.88 27.8228 2634.16 24.1683C2629.43 20.4246 2622.66 18.5527 2613.83 18.5527H2583.62L2586.02 16.4135L2574.39 74.4406ZM2698.04 108.535C2688.86 108.535 2681.1 106.93 2674.77 103.722C2668.53 100.513 2663.76 96.0559 2660.47 90.3512C2657.17 84.5574 2655.52 77.9168 2655.52 70.4295C2655.52 62.853 2656.81 55.6776 2659.4 48.9033C2661.98 42.129 2665.68 36.1124 2670.49 30.8534C2675.31 25.5944 2681.15 21.4496 2688.01 18.419C2694.96 15.3884 2702.76 13.8731 2711.41 13.8731C2720.5 13.8731 2728.21 15.4776 2734.54 18.6864C2740.87 21.8953 2745.64 26.3521 2748.84 32.0567C2752.14 37.7614 2753.79 44.402 2753.79 51.9785C2753.79 59.555 2752.5 66.7304 2749.91 73.5046C2747.42 80.2789 2743.72 86.2956 2738.82 91.5545C2734 96.8135 2728.17 100.958 2721.3 103.989C2714.44 107.02 2706.68 108.535 2698.04 108.535ZM2698.44 104.39C2706.19 104.39 2713.19 103.008 2719.43 100.245C2725.67 97.482 2730.97 93.6938 2735.34 88.8805C2739.8 84.0672 2743.23 78.4962 2745.64 72.1676C2748.04 65.839 2749.25 59.1539 2749.25 52.1122C2749.25 45.3379 2747.82 39.4104 2744.97 34.3297C2742.11 29.249 2737.84 25.2825 2732.13 22.4301C2726.43 19.4887 2719.39 18.0179 2711.01 18.0179C2703.25 18.0179 2696.21 19.3995 2689.88 22.1627C2683.64 24.9259 2678.29 28.7142 2673.84 33.5275C2669.47 38.3408 2666.08 43.9117 2663.68 50.2403C2661.27 56.5689 2660.07 63.2541 2660.07 70.2958C2660.07 76.9809 2661.49 82.9084 2664.34 88.0783C2667.29 93.159 2671.56 97.1701 2677.18 100.112C2682.88 102.964 2689.97 104.39 2698.44 104.39ZM2748.2 108L2810.23 14.408H2814.65L2839.25 108H2834.7L2811.17 17.4831H2813.04L2753.28 108H2748.2ZM2768.65 80.5909L2771.19 76.7135H2828.42L2829.35 80.5909H2768.65ZM2854.8 108L2873.51 14.408H2907.61C2916.97 14.408 2924.86 15.9678 2931.27 19.0876C2937.69 22.2073 2942.55 26.6195 2945.85 32.3241C2949.15 37.9397 2950.79 44.4911 2950.79 51.9785C2950.79 60.0898 2949.41 67.5772 2946.65 74.4406C2943.98 81.304 2940.1 87.2315 2935.02 92.2231C2929.94 97.2146 2923.79 101.092 2916.57 103.855C2909.44 106.618 2901.41 108 2892.5 108H2854.8ZM2860.14 103.855H2892.9C2903.86 103.855 2913.31 101.671 2921.25 97.3038C2929.18 92.847 2935.33 86.7412 2939.7 78.9865C2944.15 71.1426 2946.38 62.1845 2946.38 52.1122C2946.38 45.427 2944.91 39.5441 2941.97 34.4634C2939.12 29.3827 2934.79 25.4607 2929 22.6975C2923.21 19.9343 2915.94 18.5527 2907.21 18.5527H2877.12L2860.14 103.855Z" fill="#DC1405"/>
</svg>
