<svg width="2964" height="120" viewBox="0 0 2964 120" fill="none" xmlns="http://www.w3.org/2000/svg">
<path d="M51.743 108.535C42.7404 108.535 35.0302 106.975 28.6124 103.855C22.2838 100.646 17.4705 96.1896 14.1725 90.4849C10.8745 84.6911 9.2255 78.006 9.2255 70.4295C9.2255 60.2681 11.4985 50.8643 16.0444 42.2182C20.6794 33.572 27.2308 26.7086 35.6987 21.6279C44.1665 16.4581 53.9714 13.8731 65.1133 13.8731C74.116 13.8731 81.7816 15.4776 88.1102 18.6864C94.4388 21.8062 99.2521 26.263 102.55 32.0567C105.848 37.7614 107.497 44.402 107.497 51.9785C107.497 62.1399 105.224 71.5437 100.678 80.1898C96.1324 88.8359 89.6255 95.7439 81.1577 100.914C72.6898 105.994 62.8849 108.535 51.743 108.535ZM52.1441 104.39C62.1273 104.39 70.9517 102.028 78.6173 97.3038C86.3721 92.5796 92.3441 86.251 96.5335 78.318C100.812 70.2958 102.951 61.5605 102.951 52.1122C102.951 41.6834 99.6532 33.3938 93.0572 27.2434C86.4612 21.0931 77.0129 18.0179 64.7122 18.0179C54.6399 18.0179 45.7264 20.38 37.9716 25.1042C30.306 29.8284 24.3339 36.2015 20.0554 44.2237C15.8661 52.1567 13.7714 60.8474 13.7714 70.2958C13.7714 80.6355 17.0694 88.9251 23.6654 95.1645C30.3506 101.315 39.8435 104.39 52.1441 104.39ZM141.714 18.5527L133.157 61.3377H184.097L183.162 65.3488H132.354L123.931 108H119.385L138.104 14.408H199.34L198.537 18.5527H141.714ZM223.257 18.5527L214.7 61.3377H265.641L264.705 65.3488H213.897L205.474 108H200.928L219.647 14.408H280.883L280.08 18.5527H223.257ZM281.402 70.4295H315.229L314.426 74.4406H280.6L281.402 70.4295ZM413.348 39.6778C413.348 49.4827 410.718 57.4157 405.459 63.4769C400.2 69.5381 392.802 73.5046 383.265 75.3765L401.716 108H396.769L378.585 76.045C376 76.3124 373.371 76.4461 370.697 76.4461H341.549L335.265 108H330.719L349.438 14.408H381.526C391.599 14.408 399.398 16.6363 404.924 21.0931C410.54 25.4607 413.348 31.6556 413.348 39.6778ZM370.563 72.435C382.774 72.435 392.178 69.6718 398.774 64.1454C405.459 58.6191 408.802 50.5523 408.802 39.9452C408.802 33.0818 406.44 27.8228 401.716 24.1683C396.991 20.4246 390.217 18.5527 381.393 18.5527H353.181L342.352 72.435H370.563ZM465.595 108.535C456.593 108.535 448.882 106.975 442.465 103.855C436.136 100.646 431.323 96.1896 428.025 90.4849C424.727 84.6911 423.078 78.006 423.078 70.4295C423.078 60.2681 425.351 50.8643 429.897 42.2182C434.532 33.572 441.083 26.7086 449.551 21.6279C458.019 16.4581 467.824 13.8731 478.966 13.8731C487.968 13.8731 495.634 15.4776 501.963 18.6864C508.291 21.8062 513.104 26.263 516.402 32.0567C519.7 37.7614 521.349 44.402 521.349 51.9785C521.349 62.1399 519.076 71.5437 514.531 80.1898C509.985 88.8359 503.478 95.7439 495.01 100.914C486.542 105.994 476.737 108.535 465.595 108.535ZM465.996 104.39C475.98 104.39 484.804 102.028 492.47 97.3038C500.224 92.5796 506.196 86.251 510.386 78.318C514.664 70.2958 516.804 61.5605 516.804 52.1122C516.804 41.6834 513.506 33.3938 506.91 27.2434C500.314 21.0931 490.865 18.0179 478.565 18.0179C468.492 18.0179 459.579 20.38 451.824 25.1042C444.158 29.8284 438.186 36.2015 433.908 44.2237C429.718 52.1567 427.624 60.8474 427.624 70.2958C427.624 80.6355 430.922 88.9251 437.518 95.1645C444.203 101.315 453.696 104.39 465.996 104.39ZM595.173 80.5909H538.884L520.834 108H515.754L577.792 14.408H582.204L606.805 108H602.26L595.173 80.5909ZM594.104 76.7135L579.263 19.355L541.425 76.7135H594.104ZM641.072 14.408H675.166C684.347 14.408 692.147 15.9678 698.564 19.0876C705.071 22.2073 709.974 26.6195 713.272 32.3241C716.659 37.9397 718.352 44.4911 718.352 51.9785C718.352 62.853 715.946 72.5242 711.132 80.992C706.408 89.4599 699.634 96.1004 690.81 100.914C681.985 105.638 671.735 108 660.058 108H622.354L641.072 14.408ZM660.459 103.855C671.155 103.855 680.559 101.671 688.67 97.3038C696.782 92.847 703.021 86.7412 707.389 78.9865C711.756 71.1426 713.94 62.1845 713.94 52.1122C713.94 41.7725 710.598 33.6166 703.912 27.6445C697.227 21.5833 687.512 18.5527 674.765 18.5527H644.682L627.702 103.855H660.459Z" fill="#DC1405"/>
<path d="M798.743 108.535C789.562 108.535 781.807 106.93 775.479 103.722C769.239 100.513 764.471 96.0559 761.173 90.3512C757.875 84.5574 756.226 77.9168 756.226 70.4295C756.226 62.853 757.518 55.6776 760.103 48.9033C762.688 42.129 766.387 36.1124 771.2 30.8534C776.014 25.5944 781.852 21.4496 788.715 18.419C795.668 15.3884 803.467 13.8731 812.113 13.8731C821.205 13.8731 828.915 15.4776 835.244 18.6864C841.573 21.8953 846.341 26.3521 849.55 32.0567C852.848 37.7614 854.497 44.402 854.497 51.9785C854.497 59.555 853.205 66.7304 850.62 73.5046C848.124 80.2789 844.425 86.2956 839.522 91.5545C834.709 96.8135 828.871 100.958 822.007 103.989C815.144 107.02 807.389 108.535 798.743 108.535ZM799.144 104.39C806.899 104.39 813.896 103.008 820.135 100.245C826.375 97.482 831.679 93.6938 836.046 88.8805C840.503 84.0672 843.935 78.4962 846.341 72.1676C848.748 65.839 849.951 59.1539 849.951 52.1122C849.951 45.3379 848.525 39.4104 845.673 34.3297C842.82 29.249 838.542 25.2825 832.837 22.4301C827.133 19.4887 820.091 18.0179 811.712 18.0179C803.957 18.0179 796.916 19.3995 790.587 22.1627C784.348 24.9259 779 28.7142 774.543 33.5275C770.175 38.3408 766.788 43.9117 764.381 50.2403C761.975 56.5689 760.771 63.2541 760.771 70.2958C760.771 76.9809 762.198 82.9084 765.05 88.0783C767.991 93.159 772.27 97.1701 777.885 100.112C783.59 102.964 790.676 104.39 799.144 104.39ZM879.488 61.3377H931.097L930.162 65.3488H878.686L879.488 61.3377ZM870.931 108H866.385L885.104 14.408H946.34L945.537 18.5527H888.714L870.931 108ZM961.031 61.3377H1012.64L1011.7 65.3488H960.229L961.031 61.3377ZM952.474 108H947.928L966.647 14.408H1027.88L1027.08 18.5527H970.257L952.474 108ZM1027.6 74.4406L1028.4 70.4295H1062.23L1061.43 74.4406H1027.6ZM1077.72 108L1096.44 14.408H1128.53C1138.6 14.408 1146.4 16.6363 1151.92 21.0931C1157.54 25.4607 1160.35 31.6556 1160.35 39.6778C1160.35 47.7 1158.61 54.4743 1155.13 60.0007C1151.66 65.4379 1146.71 69.5381 1140.29 72.3013C1133.96 75.0645 1126.43 76.4461 1117.7 76.4461H1086.54L1088.95 74.4406L1082.27 108H1077.72ZM1143.77 108L1124.52 74.0395H1129.6L1148.72 108H1143.77ZM1088.95 74.4406L1087.35 72.435H1117.56C1129.69 72.435 1139.09 69.7164 1145.77 64.2791C1152.46 58.8419 1155.8 50.7306 1155.8 39.9452C1155.8 33.0818 1153.44 27.8228 1148.72 24.1683C1143.99 20.4246 1137.22 18.5527 1128.39 18.5527H1098.18L1100.58 16.4135L1088.95 74.4406ZM1212.6 108.535C1203.41 108.535 1195.66 106.93 1189.33 103.722C1183.09 100.513 1178.32 96.0559 1175.02 90.3512C1171.73 84.5574 1170.08 77.9168 1170.08 70.4295C1170.08 62.853 1171.37 55.6776 1173.96 48.9033C1176.54 42.129 1180.24 36.1124 1185.05 30.8534C1189.87 25.5944 1195.7 21.4496 1202.57 18.419C1209.52 15.3884 1217.32 13.8731 1225.97 13.8731C1235.06 13.8731 1242.77 15.4776 1249.1 18.6864C1255.42 21.8953 1260.19 26.3521 1263.4 32.0567C1266.7 37.7614 1268.35 44.402 1268.35 51.9785C1268.35 59.555 1267.06 66.7304 1264.47 73.5046C1261.98 80.2789 1258.28 86.2956 1253.37 91.5545C1248.56 96.8135 1242.72 100.958 1235.86 103.989C1229 107.02 1221.24 108.535 1212.6 108.535ZM1213 104.39C1220.75 104.39 1227.75 103.008 1233.99 100.245C1240.23 97.482 1245.53 93.6938 1249.9 88.8805C1254.36 84.0672 1257.79 78.4962 1260.19 72.1676C1262.6 65.839 1263.8 59.1539 1263.8 52.1122C1263.8 45.3379 1262.38 39.4104 1259.53 34.3297C1256.67 29.249 1252.39 25.2825 1246.69 22.4301C1240.98 19.4887 1233.94 18.0179 1225.56 18.0179C1217.81 18.0179 1210.77 19.3995 1204.44 22.1627C1198.2 24.9259 1192.85 28.7142 1188.4 33.5275C1184.03 38.3408 1180.64 43.9117 1178.23 50.2403C1175.83 56.5689 1174.62 63.2541 1174.62 70.2958C1174.62 76.9809 1176.05 82.9084 1178.9 88.0783C1181.84 93.159 1186.12 97.1701 1191.74 100.112C1197.44 102.964 1204.53 104.39 1213 104.39ZM1262.75 108L1324.79 14.408H1329.2L1353.81 108H1349.26L1325.73 17.4831H1327.6L1267.83 108H1262.75ZM1283.21 80.5909L1285.75 76.7135H1342.98L1343.91 80.5909H1283.21ZM1369.35 108L1388.07 14.408H1422.17C1431.53 14.408 1439.41 15.9678 1445.83 19.0876C1452.25 22.2073 1457.11 26.6195 1460.41 32.3241C1463.7 37.9397 1465.35 44.4911 1465.35 51.9785C1465.35 60.0898 1463.97 67.5772 1461.21 74.4406C1458.53 81.304 1454.66 87.2315 1449.58 92.2231C1444.49 97.2146 1438.34 101.092 1431.12 103.855C1423.99 106.618 1415.97 108 1407.06 108H1369.35ZM1374.7 103.855H1407.46C1418.42 103.855 1427.87 101.671 1435.8 97.3038C1443.74 92.847 1449.89 86.7412 1454.25 78.9865C1458.71 71.1426 1460.94 62.1845 1460.94 52.1122C1460.94 45.427 1459.47 39.5441 1456.53 34.4634C1453.68 29.3827 1449.35 25.4607 1443.56 22.6975C1437.76 19.9343 1430.5 18.5527 1421.77 18.5527H1391.68L1374.7 103.855Z" fill="#DC1405"/>
<path d="M1545.74 108.535C1536.56 108.535 1528.81 106.93 1522.48 103.722C1516.24 100.513 1511.47 96.0559 1508.17 90.3512C1504.87 84.5574 1503.23 77.9168 1503.23 70.4295C1503.23 62.853 1504.52 55.6776 1507.1 48.9033C1509.69 42.129 1513.39 36.1124 1518.2 30.8534C1523.01 25.5944 1528.85 21.4496 1535.72 18.419C1542.67 15.3884 1550.47 13.8731 1559.11 13.8731C1568.21 13.8731 1575.92 15.4776 1582.24 18.6864C1588.57 21.8953 1593.34 26.3521 1596.55 32.0567C1599.85 37.7614 1601.5 44.402 1601.5 51.9785C1601.5 59.555 1600.2 66.7304 1597.62 73.5046C1595.12 80.2789 1591.42 86.2956 1586.52 91.5545C1581.71 96.8135 1575.87 100.958 1569.01 103.989C1562.14 107.02 1554.39 108.535 1545.74 108.535ZM1546.14 104.39C1553.9 104.39 1560.9 103.008 1567.14 100.245C1573.37 97.482 1578.68 93.6938 1583.05 88.8805C1587.5 84.0672 1590.93 78.4962 1593.34 72.1676C1595.75 65.839 1596.95 59.1539 1596.95 52.1122C1596.95 45.3379 1595.53 39.4104 1592.67 34.3297C1589.82 29.249 1585.54 25.2825 1579.84 22.4301C1574.13 19.4887 1567.09 18.0179 1558.71 18.0179C1550.96 18.0179 1543.92 19.3995 1537.59 22.1627C1531.35 24.9259 1526 28.7142 1521.54 33.5275C1517.18 38.3408 1513.79 43.9117 1511.38 50.2403C1508.97 56.5689 1507.77 63.2541 1507.77 70.2958C1507.77 76.9809 1509.2 82.9084 1512.05 88.0783C1514.99 93.159 1519.27 97.1701 1524.89 100.112C1530.59 102.964 1537.68 104.39 1546.14 104.39ZM1626.49 61.3377H1678.1L1677.16 65.3488H1625.69L1626.49 61.3377ZM1617.93 108H1613.39L1632.1 14.408H1693.34L1692.54 18.5527H1635.71L1617.93 108ZM1708.03 61.3377H1759.64L1758.7 65.3488H1707.23L1708.03 61.3377ZM1699.47 108H1694.93L1713.65 14.408H1774.88L1774.08 18.5527H1717.26L1699.47 108ZM1774.6 74.4406L1775.4 70.4295H1809.23L1808.43 74.4406H1774.6ZM1824.72 108L1843.44 14.408H1875.53C1885.6 14.408 1893.4 16.6363 1898.92 21.0931C1904.54 25.4607 1907.35 31.6556 1907.35 39.6778C1907.35 47.7 1905.61 54.4743 1902.13 60.0007C1898.66 65.4379 1893.71 69.5381 1887.29 72.3013C1880.96 75.0645 1873.43 76.4461 1864.7 76.4461H1833.54L1835.95 74.4406L1829.27 108H1824.72ZM1890.77 108L1871.52 74.0395H1876.6L1895.72 108H1890.77ZM1835.95 74.4406L1834.35 72.435H1864.56C1876.69 72.435 1886.09 69.7164 1892.77 64.2791C1899.46 58.8419 1902.8 50.7306 1902.8 39.9452C1902.8 33.0818 1900.44 27.8228 1895.72 24.1683C1890.99 20.4246 1884.22 18.5527 1875.39 18.5527H1845.18L1847.58 16.4135L1835.95 74.4406ZM1959.6 108.535C1950.41 108.535 1942.66 106.93 1936.33 103.722C1930.09 100.513 1925.32 96.0559 1922.02 90.3512C1918.73 84.5574 1917.08 77.9168 1917.08 70.4295C1917.08 62.853 1918.37 55.6776 1920.96 48.9033C1923.54 42.129 1927.24 36.1124 1932.05 30.8534C1936.87 25.5944 1942.7 21.4496 1949.57 18.419C1956.52 15.3884 1964.32 13.8731 1972.97 13.8731C1982.06 13.8731 1989.77 15.4776 1996.1 18.6864C2002.42 21.8953 2007.19 26.3521 2010.4 32.0567C2013.7 37.7614 2015.35 44.402 2015.35 51.9785C2015.35 59.555 2014.06 66.7304 2011.47 73.5046C2008.98 80.2789 2005.28 86.2956 2000.37 91.5545C1995.56 96.8135 1989.72 100.958 1982.86 103.989C1976 107.02 1968.24 108.535 1959.6 108.535ZM1960 104.39C1967.75 104.39 1974.75 103.008 1980.99 100.245C1987.23 97.482 1992.53 93.6938 1996.9 88.8805C2001.36 84.0672 2004.79 78.4962 2007.19 72.1676C2009.6 65.839 2010.8 59.1539 2010.8 52.1122C2010.8 45.3379 2009.38 39.4104 2006.53 34.3297C2003.67 29.249 1999.39 25.2825 1993.69 22.4301C1987.98 19.4887 1980.94 18.0179 1972.56 18.0179C1964.81 18.0179 1957.77 19.3995 1951.44 22.1627C1945.2 24.9259 1939.85 28.7142 1935.4 33.5275C1931.03 38.3408 1927.64 43.9117 1925.23 50.2403C1922.83 56.5689 1921.62 63.2541 1921.62 70.2958C1921.62 76.9809 1923.05 82.9084 1925.9 88.0783C1928.84 93.159 1933.12 97.1701 1938.74 100.112C1944.44 102.964 1951.53 104.39 1960 104.39ZM2009.75 108L2071.79 14.408H2076.2L2100.81 108H2096.26L2072.73 17.4831H2074.6L2014.83 108H2009.75ZM2030.21 80.5909L2032.75 76.7135H2089.98L2090.91 80.5909H2030.21ZM2116.35 108L2135.07 14.408H2169.17C2178.53 14.408 2186.41 15.9678 2192.83 19.0876C2199.25 22.2073 2204.11 26.6195 2207.41 32.3241C2210.7 37.9397 2212.35 44.4911 2212.35 51.9785C2212.35 60.0898 2210.97 67.5772 2208.21 74.4406C2205.53 81.304 2201.66 87.2315 2196.58 92.2231C2191.49 97.2146 2185.34 101.092 2178.12 103.855C2170.99 106.618 2162.97 108 2154.06 108H2116.35ZM2121.7 103.855H2154.46C2165.42 103.855 2174.87 101.671 2182.8 97.3038C2190.74 92.847 2196.89 86.7412 2201.25 78.9865C2205.71 71.1426 2207.94 62.1845 2207.94 52.1122C2207.94 45.427 2206.47 39.5441 2203.53 34.4634C2200.68 29.3827 2196.35 25.4607 2190.56 22.6975C2184.76 19.9343 2177.5 18.5527 2168.77 18.5527H2138.68L2121.7 103.855Z" fill="#DC1405"/>
<path d="M2292.74 108.535C2283.56 108.535 2275.81 106.93 2269.48 103.722C2263.24 100.513 2258.47 96.0559 2255.17 90.3512C2251.87 84.5574 2250.23 77.9168 2250.23 70.4295C2250.23 62.853 2251.52 55.6776 2254.1 48.9033C2256.69 42.129 2260.39 36.1124 2265.2 30.8534C2270.01 25.5944 2275.85 21.4496 2282.72 18.419C2289.67 15.3884 2297.47 13.8731 2306.11 13.8731C2315.21 13.8731 2322.92 15.4776 2329.24 18.6864C2335.57 21.8953 2340.34 26.3521 2343.55 32.0567C2346.85 37.7614 2348.5 44.402 2348.5 51.9785C2348.5 59.555 2347.2 66.7304 2344.62 73.5046C2342.12 80.2789 2338.42 86.2956 2333.52 91.5545C2328.71 96.8135 2322.87 100.958 2316.01 103.989C2309.14 107.02 2301.39 108.535 2292.74 108.535ZM2293.14 104.39C2300.9 104.39 2307.9 103.008 2314.14 100.245C2320.37 97.482 2325.68 93.6938 2330.05 88.8805C2334.5 84.0672 2337.93 78.4962 2340.34 72.1676C2342.75 65.839 2343.95 59.1539 2343.95 52.1122C2343.95 45.3379 2342.53 39.4104 2339.67 34.3297C2336.82 29.249 2332.54 25.2825 2326.84 22.4301C2321.13 19.4887 2314.09 18.0179 2305.71 18.0179C2297.96 18.0179 2290.92 19.3995 2284.59 22.1627C2278.35 24.9259 2273 28.7142 2268.54 33.5275C2264.18 38.3408 2260.79 43.9117 2258.38 50.2403C2255.97 56.5689 2254.77 63.2541 2254.77 70.2958C2254.77 76.9809 2256.2 82.9084 2259.05 88.0783C2261.99 93.159 2266.27 97.1701 2271.89 100.112C2277.59 102.964 2284.68 104.39 2293.14 104.39ZM2373.49 61.3377H2425.1L2424.16 65.3488H2372.69L2373.49 61.3377ZM2364.93 108H2360.39L2379.1 14.408H2440.34L2439.54 18.5527H2382.71L2364.93 108ZM2455.03 61.3377H2506.64L2505.7 65.3488H2454.23L2455.03 61.3377ZM2446.47 108H2441.93L2460.65 14.408H2521.88L2521.08 18.5527H2464.26L2446.47 108ZM2521.6 74.4406L2522.4 70.4295H2556.23L2555.43 74.4406H2521.6ZM2571.72 108L2590.44 14.408H2622.53C2632.6 14.408 2640.4 16.6363 2645.92 21.0931C2651.54 25.4607 2654.35 31.6556 2654.35 39.6778C2654.35 47.7 2652.61 54.4743 2649.13 60.0007C2645.66 65.4379 2640.71 69.5381 2634.29 72.3013C2627.96 75.0645 2620.43 76.4461 2611.7 76.4461H2580.54L2582.95 74.4406L2576.27 108H2571.72ZM2637.77 108L2618.52 74.0395H2623.6L2642.72 108H2637.77ZM2582.95 74.4406L2581.35 72.435H2611.56C2623.69 72.435 2633.09 69.7164 2639.77 64.2791C2646.46 58.8419 2649.8 50.7306 2649.8 39.9452C2649.8 33.0818 2647.44 27.8228 2642.72 24.1683C2637.99 20.4246 2631.22 18.5527 2622.39 18.5527H2592.18L2594.58 16.4135L2582.95 74.4406ZM2706.6 108.535C2697.41 108.535 2689.66 106.93 2683.33 103.722C2677.09 100.513 2672.32 96.0559 2669.02 90.3512C2665.73 84.5574 2664.08 77.9168 2664.08 70.4295C2664.08 62.853 2665.37 55.6776 2667.96 48.9033C2670.54 42.129 2674.24 36.1124 2679.05 30.8534C2683.87 25.5944 2689.7 21.4496 2696.57 18.419C2703.52 15.3884 2711.32 13.8731 2719.97 13.8731C2729.06 13.8731 2736.77 15.4776 2743.1 18.6864C2749.42 21.8953 2754.19 26.3521 2757.4 32.0567C2760.7 37.7614 2762.35 44.402 2762.35 51.9785C2762.35 59.555 2761.06 66.7304 2758.47 73.5046C2755.98 80.2789 2752.28 86.2956 2747.37 91.5545C2742.56 96.8135 2736.72 100.958 2729.86 103.989C2723 107.02 2715.24 108.535 2706.6 108.535ZM2707 104.39C2714.75 104.39 2721.75 103.008 2727.99 100.245C2734.23 97.482 2739.53 93.6938 2743.9 88.8805C2748.36 84.0672 2751.79 78.4962 2754.19 72.1676C2756.6 65.839 2757.8 59.1539 2757.8 52.1122C2757.8 45.3379 2756.38 39.4104 2753.53 34.3297C2750.67 29.249 2746.39 25.2825 2740.69 22.4301C2734.98 19.4887 2727.94 18.0179 2719.56 18.0179C2711.81 18.0179 2704.77 19.3995 2698.44 22.1627C2692.2 24.9259 2686.85 28.7142 2682.4 33.5275C2678.03 38.3408 2674.64 43.9117 2672.23 50.2403C2669.83 56.5689 2668.62 63.2541 2668.62 70.2958C2668.62 76.9809 2670.05 82.9084 2672.9 88.0783C2675.84 93.159 2680.12 97.1701 2685.74 100.112C2691.44 102.964 2698.53 104.39 2707 104.39ZM2756.75 108L2818.79 14.408H2823.2L2847.81 108H2843.26L2819.73 17.4831H2821.6L2761.83 108H2756.75ZM2777.21 80.5909L2779.75 76.7135H2836.98L2837.91 80.5909H2777.21ZM2863.35 108L2882.07 14.408H2916.17C2925.53 14.408 2933.41 15.9678 2939.83 19.0876C2946.25 22.2073 2951.11 26.6195 2954.41 32.3241C2957.7 37.9397 2959.35 44.4911 2959.35 51.9785C2959.35 60.0898 2957.97 67.5772 2955.21 74.4406C2952.53 81.304 2948.66 87.2315 2943.58 92.2231C2938.49 97.2146 2932.34 101.092 2925.12 103.855C2917.99 106.618 2909.97 108 2901.06 108H2863.35ZM2868.7 103.855H2901.46C2912.42 103.855 2921.87 101.671 2929.8 97.3038C2937.74 92.847 2943.89 86.7412 2948.25 78.9865C2952.71 71.1426 2954.94 62.1845 2954.94 52.1122C2954.94 45.427 2953.47 39.5441 2950.53 34.4634C2947.68 29.3827 2943.35 25.4607 2937.56 22.6975C2931.76 19.9343 2924.5 18.5527 2915.77 18.5527H2885.68L2868.7 103.855Z" fill="#DC1405"/>
</svg>
